<mxfile host="app.diagrams.net" modified="2024-02-06T05:06:31.742Z" agent="Mozilla/5.0 (Windows NT 10.0; Win64; x64) AppleWebKit/537.36 (KHTML, like Gecko) Chrome/121.0.0.0 Safari/537.36 Edg/121.0.0.0" etag="Youoz_Rc13fklqDtUR1J" version="23.0.2" type="device">
  <diagram name="Page-1" id="kw09p_RYWFVDqZU5MDWe">
    <mxGraphModel dx="2377" dy="1252" grid="1" gridSize="10" guides="1" tooltips="1" connect="1" arrows="1" fold="1" page="1" pageScale="1" pageWidth="827" pageHeight="1169" math="1" shadow="0">
      <root>
        <mxCell id="0" />
        <mxCell id="1" parent="0" />
        <mxCell id="NN1-F801MgsBqlG8R_-q-21" value="" style="shape=cube;whiteSpace=wrap;html=1;boundedLbl=1;backgroundOutline=1;darkOpacity=0.05;darkOpacity2=0.1;flipH=1;size=7;fillColor=#f5f5f5;strokeColor=#666666;fontColor=#333333;" vertex="1" parent="1">
          <mxGeometry x="1600" y="325.47" width="20" height="20.53" as="geometry" />
        </mxCell>
        <mxCell id="NN1-F801MgsBqlG8R_-q-1" value="" style="shape=cube;whiteSpace=wrap;html=1;boundedLbl=1;backgroundOutline=1;darkOpacity=0.05;darkOpacity2=0.1;flipH=1;size=4;fillColor=#fff2cc;strokeColor=#d6b656;fillStyle=auto;" vertex="1" parent="1">
          <mxGeometry x="40" y="215" width="13" height="230" as="geometry" />
        </mxCell>
        <mxCell id="NN1-F801MgsBqlG8R_-q-2" value="" style="shape=cube;whiteSpace=wrap;html=1;boundedLbl=1;backgroundOutline=1;darkOpacity=0.05;darkOpacity2=0.1;flipH=1;flipV=0;size=20;fillColor=#dae8fc;strokeColor=#6c8ebf;gradientColor=none;fillStyle=solid;strokeWidth=1;" vertex="1" parent="1">
          <mxGeometry x="100" y="298.53" width="140" height="62.94" as="geometry" />
        </mxCell>
        <mxCell id="NN1-F801MgsBqlG8R_-q-6" value="" style="shape=cube;whiteSpace=wrap;html=1;boundedLbl=1;backgroundOutline=1;darkOpacity=0.05;darkOpacity2=0.1;flipH=1;flipV=0;size=50;fillColor=#dae8fc;strokeColor=#6c8ebf;gradientColor=none;fillStyle=solid;strokeWidth=1;" vertex="1" parent="1">
          <mxGeometry x="290" y="231" width="140" height="151.47" as="geometry" />
        </mxCell>
        <mxCell id="NN1-F801MgsBqlG8R_-q-7" value="" style="shape=cube;whiteSpace=wrap;html=1;boundedLbl=1;backgroundOutline=1;darkOpacity=0.05;darkOpacity2=0.1;flipH=1;flipV=0;size=90;fillColor=#dae8fc;strokeColor=#6c8ebf;gradientColor=none;fillStyle=solid;strokeWidth=1;" vertex="1" parent="1">
          <mxGeometry x="480" y="150" width="150" height="270" as="geometry" />
        </mxCell>
        <mxCell id="NN1-F801MgsBqlG8R_-q-9" value="" style="shape=cube;whiteSpace=wrap;html=1;boundedLbl=1;backgroundOutline=1;darkOpacity=0.05;darkOpacity2=0.1;flipH=1;flipV=0;size=140;fillColor=#f5f5f5;strokeColor=#666666;fontColor=#333333;fillStyle=solid;strokeWidth=2;shadow=0;opacity=50;" vertex="1" parent="1">
          <mxGeometry x="827.0001200123999" y="40" width="140.57349098799875" height="423.5294117647059" as="geometry" />
        </mxCell>
        <mxCell id="NN1-F801MgsBqlG8R_-q-10" value="" style="shape=cube;whiteSpace=wrap;html=1;boundedLbl=1;backgroundOutline=1;darkOpacity=0.05;darkOpacity2=0.1;flipH=1;flipV=0;size=90;fillColor=#ffe6cc;strokeColor=#d79b00;fillStyle=solid;strokeWidth=1;" vertex="1" parent="1">
          <mxGeometry x="1020" y="150" width="150" height="270" as="geometry" />
        </mxCell>
        <mxCell id="NN1-F801MgsBqlG8R_-q-11" value="" style="shape=cube;whiteSpace=wrap;html=1;boundedLbl=1;backgroundOutline=1;darkOpacity=0.05;darkOpacity2=0.1;flipH=1;flipV=0;size=50;fillColor=#ffe6cc;strokeColor=#d79b00;fillStyle=solid;strokeWidth=1;" vertex="1" parent="1">
          <mxGeometry x="1220" y="230" width="140" height="151.47" as="geometry" />
        </mxCell>
        <mxCell id="NN1-F801MgsBqlG8R_-q-12" value="" style="shape=cube;whiteSpace=wrap;html=1;boundedLbl=1;backgroundOutline=1;darkOpacity=0.05;darkOpacity2=0.1;flipH=1;flipV=0;size=20;fillColor=#ffe6cc;strokeColor=#d79b00;fillStyle=solid;strokeWidth=1;" vertex="1" parent="1">
          <mxGeometry x="1410" y="298.53" width="140" height="62.94" as="geometry" />
        </mxCell>
        <mxCell id="NN1-F801MgsBqlG8R_-q-13" value="" style="shape=cube;whiteSpace=wrap;html=1;boundedLbl=1;backgroundOutline=1;darkOpacity=0.05;darkOpacity2=0.1;flipH=1;size=7;fillColor=#f5f5f5;strokeColor=#666666;fontColor=#333333;" vertex="1" parent="1">
          <mxGeometry x="1600" y="307.47" width="20" height="20.53" as="geometry" />
        </mxCell>
        <mxCell id="NN1-F801MgsBqlG8R_-q-14" value="" style="triangle;whiteSpace=wrap;html=1;fillColor=#1ba1e2;strokeColor=#006EAF;fontColor=#ffffff;" vertex="1" parent="1">
          <mxGeometry x="250" y="310" width="30" height="40" as="geometry" />
        </mxCell>
        <mxCell id="NN1-F801MgsBqlG8R_-q-15" value="" style="triangle;whiteSpace=wrap;html=1;fillColor=#1ba1e2;strokeColor=#006EAF;fontColor=#ffffff;" vertex="1" parent="1">
          <mxGeometry x="440" y="310" width="30" height="40" as="geometry" />
        </mxCell>
        <mxCell id="NN1-F801MgsBqlG8R_-q-16" value="" style="triangle;whiteSpace=wrap;html=1;fillColor=#0050ef;strokeColor=#001DBC;fontColor=#ffffff;" vertex="1" parent="1">
          <mxGeometry x="640" y="310" width="30" height="40" as="geometry" />
        </mxCell>
        <mxCell id="NN1-F801MgsBqlG8R_-q-8" value="" style="shape=cube;whiteSpace=wrap;html=1;boundedLbl=1;backgroundOutline=1;darkOpacity=0.05;darkOpacity2=0.1;flipH=1;flipV=0;size=140;fillColor=#f5f5f5;strokeColor=#666666;fontColor=#333333;fillStyle=auto;strokeWidth=2;shadow=0;opacity=50;" vertex="1" parent="1">
          <mxGeometry x="660.0001200123999" y="40" width="140.57349098799875" height="423.5294117647059" as="geometry" />
        </mxCell>
        <mxCell id="NN1-F801MgsBqlG8R_-q-17" value="" style="triangle;whiteSpace=wrap;html=1;fillColor=#f0a30a;strokeColor=#BD7000;fontColor=#000000;" vertex="1" parent="1">
          <mxGeometry x="980" y="310" width="30" height="40" as="geometry" />
        </mxCell>
        <mxCell id="NN1-F801MgsBqlG8R_-q-18" value="" style="triangle;whiteSpace=wrap;html=1;fillColor=#f0a30a;strokeColor=#BD7000;fontColor=#000000;" vertex="1" parent="1">
          <mxGeometry x="1180" y="310" width="30" height="40" as="geometry" />
        </mxCell>
        <mxCell id="NN1-F801MgsBqlG8R_-q-19" value="" style="triangle;whiteSpace=wrap;html=1;fillColor=#f0a30a;strokeColor=#BD7000;fontColor=#000000;" vertex="1" parent="1">
          <mxGeometry x="1370" y="310" width="30" height="40" as="geometry" />
        </mxCell>
        <mxCell id="NN1-F801MgsBqlG8R_-q-20" value="" style="triangle;whiteSpace=wrap;html=1;fillColor=#e3c800;strokeColor=#B09500;fontColor=#000000;" vertex="1" parent="1">
          <mxGeometry x="1560" y="310" width="30" height="40" as="geometry" />
        </mxCell>
        <mxCell id="NN1-F801MgsBqlG8R_-q-22" value="" style="triangle;whiteSpace=wrap;html=1;fillColor=#dae8fc;strokeColor=#6c8ebf;" vertex="1" parent="1">
          <mxGeometry x="60" y="315.73" width="30" height="40" as="geometry" />
        </mxCell>
        <mxCell id="NN1-F801MgsBqlG8R_-q-23" value="256" style="text;html=1;strokeColor=none;fillColor=none;align=center;verticalAlign=middle;whiteSpace=wrap;rounded=0;" vertex="1" parent="1">
          <mxGeometry x="133" y="361.47" width="60" height="30" as="geometry" />
        </mxCell>
        <mxCell id="NN1-F801MgsBqlG8R_-q-24" value="128" style="text;html=1;strokeColor=none;fillColor=none;align=center;verticalAlign=middle;whiteSpace=wrap;rounded=0;" vertex="1" parent="1">
          <mxGeometry x="310" y="381.47" width="60" height="30" as="geometry" />
        </mxCell>
        <mxCell id="NN1-F801MgsBqlG8R_-q-25" value="64" style="text;html=1;strokeColor=none;fillColor=none;align=center;verticalAlign=middle;whiteSpace=wrap;rounded=0;" vertex="1" parent="1">
          <mxGeometry x="480" y="420" width="60" height="30" as="geometry" />
        </mxCell>
        <mxCell id="NN1-F801MgsBqlG8R_-q-26" value="64" style="text;html=1;strokeColor=none;fillColor=none;align=center;verticalAlign=middle;whiteSpace=wrap;rounded=0;" vertex="1" parent="1">
          <mxGeometry x="1020" y="420" width="60" height="30" as="geometry" />
        </mxCell>
        <mxCell id="NN1-F801MgsBqlG8R_-q-27" value="128" style="text;html=1;strokeColor=none;fillColor=none;align=center;verticalAlign=middle;whiteSpace=wrap;rounded=0;" vertex="1" parent="1">
          <mxGeometry x="1241" y="381.47" width="60" height="30" as="geometry" />
        </mxCell>
        <mxCell id="NN1-F801MgsBqlG8R_-q-28" value="256" style="text;html=1;strokeColor=none;fillColor=none;align=center;verticalAlign=middle;whiteSpace=wrap;rounded=0;" vertex="1" parent="1">
          <mxGeometry x="1450" y="361.47" width="60" height="30" as="geometry" />
        </mxCell>
        <mxCell id="NN1-F801MgsBqlG8R_-q-29" value="$$l$$" style="text;html=1;strokeColor=none;fillColor=none;align=center;verticalAlign=middle;whiteSpace=wrap;rounded=0;" vertex="1" parent="1">
          <mxGeometry x="30" y="361.47" width="60" height="30" as="geometry" />
        </mxCell>
        <mxCell id="NN1-F801MgsBqlG8R_-q-30" value="4" style="text;html=1;strokeColor=none;fillColor=none;align=center;verticalAlign=middle;whiteSpace=wrap;rounded=0;" vertex="1" parent="1">
          <mxGeometry x="210" y="340" width="60" height="30" as="geometry" />
        </mxCell>
        <mxCell id="NN1-F801MgsBqlG8R_-q-31" value="4" style="text;html=1;strokeColor=none;fillColor=none;align=center;verticalAlign=middle;whiteSpace=wrap;rounded=0;" vertex="1" parent="1">
          <mxGeometry x="220" y="285.73" width="60" height="30" as="geometry" />
        </mxCell>
        <mxCell id="NN1-F801MgsBqlG8R_-q-32" value="8" style="text;html=1;strokeColor=none;fillColor=none;align=center;verticalAlign=middle;whiteSpace=wrap;rounded=0;" vertex="1" parent="1">
          <mxGeometry x="384" y="346" width="60" height="30" as="geometry" />
        </mxCell>
        <mxCell id="NN1-F801MgsBqlG8R_-q-33" value="8" style="text;html=1;strokeColor=none;fillColor=none;align=center;verticalAlign=middle;whiteSpace=wrap;rounded=0;" vertex="1" parent="1">
          <mxGeometry x="408" y="268.53" width="60" height="30" as="geometry" />
        </mxCell>
        <mxCell id="NN1-F801MgsBqlG8R_-q-34" value="16" style="text;html=1;strokeColor=none;fillColor=none;align=center;verticalAlign=middle;whiteSpace=wrap;rounded=0;" vertex="1" parent="1">
          <mxGeometry x="569" y="361.47" width="60" height="30" as="geometry" />
        </mxCell>
        <mxCell id="NN1-F801MgsBqlG8R_-q-35" value="16" style="text;html=1;strokeColor=none;fillColor=none;align=center;verticalAlign=middle;whiteSpace=wrap;rounded=0;" vertex="1" parent="1">
          <mxGeometry x="608" y="236.76000000000002" width="60" height="30" as="geometry" />
        </mxCell>
        <mxCell id="NN1-F801MgsBqlG8R_-q-36" value="32" style="text;html=1;strokeColor=none;fillColor=none;align=center;verticalAlign=middle;whiteSpace=wrap;rounded=0;" vertex="1" parent="1">
          <mxGeometry x="720" y="376" width="60" height="30" as="geometry" />
        </mxCell>
        <mxCell id="NN1-F801MgsBqlG8R_-q-37" value="32" style="text;html=1;strokeColor=none;fillColor=none;align=center;verticalAlign=middle;whiteSpace=wrap;rounded=0;" vertex="1" parent="1">
          <mxGeometry x="780" y="200" width="60" height="30" as="geometry" />
        </mxCell>
        <mxCell id="NN1-F801MgsBqlG8R_-q-38" value="32" style="text;html=1;strokeColor=none;fillColor=none;align=center;verticalAlign=middle;whiteSpace=wrap;rounded=0;" vertex="1" parent="1">
          <mxGeometry x="890" y="376" width="60" height="30" as="geometry" />
        </mxCell>
        <mxCell id="NN1-F801MgsBqlG8R_-q-39" value="32" style="text;html=1;strokeColor=none;fillColor=none;align=center;verticalAlign=middle;whiteSpace=wrap;rounded=0;" vertex="1" parent="1">
          <mxGeometry x="950" y="200" width="60" height="30" as="geometry" />
        </mxCell>
        <mxCell id="NN1-F801MgsBqlG8R_-q-40" value="16" style="text;html=1;strokeColor=none;fillColor=none;align=center;verticalAlign=middle;whiteSpace=wrap;rounded=0;" vertex="1" parent="1">
          <mxGeometry x="1150" y="236.76000000000002" width="60" height="30" as="geometry" />
        </mxCell>
        <mxCell id="NN1-F801MgsBqlG8R_-q-41" value="16" style="text;html=1;strokeColor=none;fillColor=none;align=center;verticalAlign=middle;whiteSpace=wrap;rounded=0;" vertex="1" parent="1">
          <mxGeometry x="1110" y="361.47" width="60" height="30" as="geometry" />
        </mxCell>
        <mxCell id="NN1-F801MgsBqlG8R_-q-42" value="8" style="text;html=1;strokeColor=none;fillColor=none;align=center;verticalAlign=middle;whiteSpace=wrap;rounded=0;" vertex="1" parent="1">
          <mxGeometry x="1310" y="350" width="60" height="30" as="geometry" />
        </mxCell>
        <mxCell id="NN1-F801MgsBqlG8R_-q-43" value="8" style="text;html=1;strokeColor=none;fillColor=none;align=center;verticalAlign=middle;whiteSpace=wrap;rounded=0;" vertex="1" parent="1">
          <mxGeometry x="1340" y="268.53" width="60" height="30" as="geometry" />
        </mxCell>
        <mxCell id="NN1-F801MgsBqlG8R_-q-44" value="4" style="text;html=1;strokeColor=none;fillColor=none;align=center;verticalAlign=middle;whiteSpace=wrap;rounded=0;" vertex="1" parent="1">
          <mxGeometry x="1518" y="340" width="60" height="30" as="geometry" />
        </mxCell>
        <mxCell id="NN1-F801MgsBqlG8R_-q-45" value="4" style="text;html=1;strokeColor=none;fillColor=none;align=center;verticalAlign=middle;whiteSpace=wrap;rounded=0;" vertex="1" parent="1">
          <mxGeometry x="1530" y="286.73" width="60" height="30" as="geometry" />
        </mxCell>
        <mxCell id="NN1-F801MgsBqlG8R_-q-46" value="" style="shape=curlyBracket;whiteSpace=wrap;html=1;rounded=1;labelPosition=left;verticalLabelPosition=middle;align=right;verticalAlign=middle;rotation=-90;" vertex="1" parent="1">
          <mxGeometry x="388.75" y="201.25" width="20" height="737.5" as="geometry" />
        </mxCell>
        <mxCell id="NN1-F801MgsBqlG8R_-q-48" value="" style="shape=curlyBracket;whiteSpace=wrap;html=1;rounded=1;labelPosition=left;verticalLabelPosition=middle;align=right;verticalAlign=middle;rotation=-90;" vertex="1" parent="1">
          <mxGeometry x="1241" y="200" width="20" height="737.5" as="geometry" />
        </mxCell>
        <mxCell id="NN1-F801MgsBqlG8R_-q-49" value="&lt;font style=&quot;font-size: 14px;&quot;&gt;Generator&lt;/font&gt;" style="text;html=1;strokeColor=none;fillColor=none;align=center;verticalAlign=middle;whiteSpace=wrap;rounded=0;" vertex="1" parent="1">
          <mxGeometry x="368.75" y="585" width="60" height="30" as="geometry" />
        </mxCell>
        <mxCell id="NN1-F801MgsBqlG8R_-q-50" value="&lt;font style=&quot;font-size: 14px;&quot;&gt;Discriminator&lt;/font&gt;" style="text;html=1;strokeColor=none;fillColor=none;align=center;verticalAlign=middle;whiteSpace=wrap;rounded=0;" vertex="1" parent="1">
          <mxGeometry x="1221" y="585" width="60" height="30" as="geometry" />
        </mxCell>
        <mxCell id="NN1-F801MgsBqlG8R_-q-51" value="" style="triangle;whiteSpace=wrap;html=1;fillColor=#1ba1e2;strokeColor=#006EAF;fontColor=#ffffff;" vertex="1" parent="1">
          <mxGeometry x="963" y="740" width="30" height="40" as="geometry" />
        </mxCell>
        <mxCell id="NN1-F801MgsBqlG8R_-q-52" value="" style="triangle;whiteSpace=wrap;html=1;fillColor=#0050ef;strokeColor=#001DBC;fontColor=#ffffff;" vertex="1" parent="1">
          <mxGeometry x="963" y="790" width="30" height="40" as="geometry" />
        </mxCell>
        <mxCell id="NN1-F801MgsBqlG8R_-q-53" value="" style="triangle;whiteSpace=wrap;html=1;fillColor=#f0a30a;strokeColor=#BD7000;fontColor=#000000;" vertex="1" parent="1">
          <mxGeometry x="1335" y="690" width="30" height="40" as="geometry" />
        </mxCell>
        <mxCell id="NN1-F801MgsBqlG8R_-q-54" value="" style="triangle;whiteSpace=wrap;html=1;fillColor=#e3c800;strokeColor=#B09500;fontColor=#000000;" vertex="1" parent="1">
          <mxGeometry x="1335" y="740" width="30" height="40" as="geometry" />
        </mxCell>
        <mxCell id="NN1-F801MgsBqlG8R_-q-55" value="Tanspose convolution (4,4) | stride (2,2) | padding 1&lt;br&gt;Batch Normalization + ReLU" style="text;html=1;strokeColor=none;fillColor=none;align=left;verticalAlign=middle;whiteSpace=wrap;rounded=0;" vertex="1" parent="1">
          <mxGeometry x="1002" y="745" width="290" height="30" as="geometry" />
        </mxCell>
        <mxCell id="NN1-F801MgsBqlG8R_-q-56" value="Tanspose convolution (4,4) | stride (2,2) | padding 1&lt;br&gt;Tanh" style="text;html=1;strokeColor=none;fillColor=none;align=left;verticalAlign=middle;whiteSpace=wrap;rounded=0;" vertex="1" parent="1">
          <mxGeometry x="1002" y="795" width="280" height="30" as="geometry" />
        </mxCell>
        <mxCell id="NN1-F801MgsBqlG8R_-q-57" value="Convolution (4,4) | stride (2,2) | padding 1&lt;br&gt;Batch Normalization + Leaky ReLU" style="text;html=1;strokeColor=none;fillColor=none;align=left;verticalAlign=middle;whiteSpace=wrap;rounded=0;" vertex="1" parent="1">
          <mxGeometry x="1374" y="695" width="280" height="30" as="geometry" />
        </mxCell>
        <mxCell id="NN1-F801MgsBqlG8R_-q-58" value="Convolution (4,4) | stride (1,1) | padding 0&lt;br&gt;Batch Normalization + Leaky ReLU" style="text;html=1;strokeColor=none;fillColor=none;align=left;verticalAlign=middle;whiteSpace=wrap;rounded=0;" vertex="1" parent="1">
          <mxGeometry x="1374" y="745" width="280" height="30" as="geometry" />
        </mxCell>
        <mxCell id="NN1-F801MgsBqlG8R_-q-59" value="" style="triangle;whiteSpace=wrap;html=1;fillColor=#dae8fc;strokeColor=#6c8ebf;" vertex="1" parent="1">
          <mxGeometry x="963" y="690" width="30" height="40" as="geometry" />
        </mxCell>
        <mxCell id="NN1-F801MgsBqlG8R_-q-60" value="Tanspose convolution (4,4) | stride (1,1) | padding 0&lt;br&gt;Batch Normalization + ReLU" style="text;html=1;strokeColor=none;fillColor=none;align=left;verticalAlign=middle;whiteSpace=wrap;rounded=0;" vertex="1" parent="1">
          <mxGeometry x="1002" y="695" width="290" height="30" as="geometry" />
        </mxCell>
        <mxCell id="NN1-F801MgsBqlG8R_-q-61" value="$$l$$" style="text;html=1;strokeColor=none;fillColor=none;align=center;verticalAlign=middle;whiteSpace=wrap;rounded=0;fontSize=14;" vertex="1" parent="1">
          <mxGeometry x="1320" y="790" width="60" height="30" as="geometry" />
        </mxCell>
        <mxCell id="NN1-F801MgsBqlG8R_-q-62" value="Latent space dimension" style="text;html=1;strokeColor=none;fillColor=none;align=left;verticalAlign=middle;whiteSpace=wrap;rounded=0;" vertex="1" parent="1">
          <mxGeometry x="1374" y="790" width="280" height="30" as="geometry" />
        </mxCell>
        <mxCell id="NN1-F801MgsBqlG8R_-q-63" value="" style="shape=cube;whiteSpace=wrap;html=1;boundedLbl=1;backgroundOutline=1;darkOpacity=0.05;darkOpacity2=0.1;flipH=1;size=7;fillColor=#f5f5f5;strokeColor=#666666;fontColor=#333333;" vertex="1" parent="1">
          <mxGeometry x="1343" y="838.22" width="20" height="20.53" as="geometry" />
        </mxCell>
        <mxCell id="NN1-F801MgsBqlG8R_-q-64" value="Fake / Real probability of the input image" style="text;html=1;strokeColor=none;fillColor=none;align=left;verticalAlign=middle;whiteSpace=wrap;rounded=0;" vertex="1" parent="1">
          <mxGeometry x="1374" y="833.49" width="280" height="30" as="geometry" />
        </mxCell>
        <mxCell id="NN1-F801MgsBqlG8R_-q-66" value="&lt;font style=&quot;font-size: 20px;&quot;&gt;GAN architecture for FER dataset&lt;/font&gt;" style="text;html=1;strokeColor=none;fillColor=none;align=center;verticalAlign=middle;whiteSpace=wrap;rounded=0;fontSize=15;" vertex="1" parent="1">
          <mxGeometry x="655" y="900" width="310" height="30" as="geometry" />
        </mxCell>
      </root>
    </mxGraphModel>
  </diagram>
</mxfile>
